<?xml version="1.0" encoding="utf-8"?>
<!-- Generator: Adobe Illustrator 25.1.0, SVG Export Plug-In . SVG Version: 6.00 Build 0)  -->
<svg version="1.1" id="Layer_1" focusable="false" xmlns="http://www.w3.org/2000/svg" xmlns:xlink="http://www.w3.org/1999/xlink"
	 x="0px" y="0px" viewBox="0 0 28 28" style="enable-background:new 0 0 28 28;" xml:space="preserve">
<style type="text/css">
	.st0{fill:#39A1FC;}
	.st1{fill:#FFFFFF;}
</style>
<circle class="st0" cx="14" cy="14" r="14"/>
<g>
	<path class="st1" d="M21.5,22.6c-0.4,0-0.7-0.2-0.9-0.6c-0.2-0.3-0.4-0.9-0.6-1.7l-0.4-1.8c-0.3-1.1-0.8-3.6-1.4-7.5l-2.1,6.4
		l-0.6,2c-0.3,0.8-0.5,1.5-0.8,2c-0.3,0.5-0.7,0.8-1.2,0.8c-0.4,0-0.7-0.2-1-0.7c-0.2-0.3-0.3-0.7-0.4-1.1l-0.3-1.2
		c-0.7-2.5-1.3-5.2-1.9-8L9.4,13l-1.4,5.6c-0.1,0.7-0.2,1.6-0.5,2.9c-0.2,0.6-0.6,0.8-1.1,0.8c-0.3,0-0.6-0.1-0.8-0.4
		c-0.2-0.2-0.3-0.5-0.3-0.8c0-1.2,0.2-2.6,0.7-4.4l1.2-4.3l0.6-3.4c0.3-1.6,0.6-2.6,1-3.1C9.2,5.8,9.5,5.6,10,5.6
		c0.5,0,0.8,0.3,1,0.8c0.3,0.6,0.6,1.9,0.9,3.9c0.4,2.3,1,4.9,1.8,7.6c1-2.7,2-5.6,2.7-8.5l0.3-1.6c0.1-0.6,0.3-1.1,0.5-1.5
		c0.3-0.5,0.7-0.8,1.1-0.8c0.6,0,1.1,0.6,1.4,1.8c0.1,0.4,0.3,1.2,0.4,2.5c0.4,3.2,0.9,5.9,1.6,8.2l0.5,1.8c0.3,1,0.4,1.6,0.4,1.8
		c0,0.3-0.1,0.6-0.3,0.8S21.8,22.6,21.5,22.6z"/>
</g>
</svg>
