<svg xmlns="http://www.w3.org/2000/svg" viewBox="0 0 255 30"><path d="M5.24,30a5.27,5.27,0,1,1,5.24-5.27h0A5.26,5.26,0,0,1,5.24,30Zm0-8.55A3.29,3.29,0,1,0,8.5,24.73h0A3.27,3.27,0,0,0,5.24,21.45Z" transform="translate(0 0)" fill="#fff"/><path d="M21.42,10.53a5.27,5.27,0,1,1,5.24-5.26A5.26,5.26,0,0,1,21.42,10.53Zm0-8.55a3.29,3.29,0,1,0,3.27,3.29A3.27,3.27,0,0,0,21.42,2Z" transform="translate(0 0)" fill="#fff"/><path d="M54,30a5.27,5.27,0,1,1,5.24-5.27h0A5.26,5.26,0,0,1,54,30Zm0-8.55a3.29,3.29,0,1,0,3.26,3.28h0A3.27,3.27,0,0,0,54,21.45Z" transform="translate(0 0)" fill="#fff"/><path d="M57.25,30H50.83a2,2,0,0,1-2-2V21.51a2,2,0,0,1,2-2h6.42a2,2,0,0,1,2,2V28A2,2,0,0,1,57.25,30Zm-6.42-8.55,0,6.51,6.47.06a.06.06,0,0,0,0-.06h0V21.51Z" transform="translate(0 0)" fill="#fff"/><path d="M103.43,10.53a5.27,5.27,0,1,1,5.24-5.26A5.25,5.25,0,0,1,103.43,10.53Zm0-8.55a3.29,3.29,0,1,0,3.26,3.29h0A3.28,3.28,0,0,0,103.43,2Z" transform="translate(0 0)" fill="#fff"/><path d="M106.64,10.53h-6.42a2,2,0,0,1-2-2V2a2,2,0,0,1,2-2h6.42a2,2,0,0,1,2,2V8.49A2,2,0,0,1,106.64,10.53ZM100.22,2l-.06,6.52,6.48.05a0,0,0,0,0,0-.05V2Z" transform="translate(0 0)" fill="#fff"/><path d="M8.45,10.53H2a2,2,0,0,1-2-2V2A2,2,0,0,1,2,0H8.45a2,2,0,0,1,2,2V8.49A2,2,0,0,1,8.45,10.53ZM2,2,2,8.5l6.48.05s.06,0,.05-.05h0V2Z" transform="translate(0 0)" fill="#fff"/><path d="M54,10.53a5.27,5.27,0,1,1,5.24-5.26A5.25,5.25,0,0,1,54,10.53ZM54,2A3.29,3.29,0,1,0,57.3,5.27h0A3.28,3.28,0,0,0,54,2Z" transform="translate(0 0)" fill="#fff"/><rect x="36.87" y="0.99" width="1.97" height="8.55" fill="#fff"/><rect x="33.6" y="4.27" width="8.5" height="1.98" fill="#fff"/><rect x="20.44" y="20.46" width="1.97" height="8.55" fill="#fff"/><rect x="17.17" y="23.74" width="8.5" height="1.98" fill="#fff"/><path d="M74,30H67.63a2,2,0,0,1-2-2.06h0V21.53a2.05,2.05,0,0,1,2-2.06H74a2.05,2.05,0,0,1,2,2.06h0v6.41A2.06,2.06,0,0,1,74,30Zm-6.37-8.55-.08,6.48L74,28a.09.09,0,0,0,.09-.08h0v-6.4Z" transform="translate(0 0)" fill="#fff"/><path d="M87,10.53a5.27,5.27,0,1,1,5.23-5.26A5.24,5.24,0,0,1,87,10.53ZM87,2a3.29,3.29,0,1,0,3.26,3.29h0A3.28,3.28,0,0,0,87,2Z" transform="translate(0 0)" fill="#fff"/><path d="M106.64,30h-6.42a2,2,0,0,1-2-2V21.51a2,2,0,0,1,2-2h6.42a2,2,0,0,1,2,2V28A2,2,0,0,1,106.64,30Zm-6.42-8.55L100.16,28l6.48.06a.06.06,0,0,0,0-.06h0V21.51Z" transform="translate(0 0)" fill="#fff"/><path d="M119.61,10.53a5.27,5.27,0,1,1,5.24-5.26A5.25,5.25,0,0,1,119.61,10.53Zm0-8.55a3.29,3.29,0,1,0,3.27,3.29h0A3.29,3.29,0,0,0,119.61,2Z" transform="translate(0 0)" fill="#fff"/><rect x="69.83" y="0.99" width="1.97" height="8.55" fill="#fff"/><rect x="66.56" y="4.27" width="8.5" height="1.98" fill="#fff"/><rect x="86.01" y="20.46" width="1.97" height="8.55" fill="#fff"/><rect x="82.75" y="23.74" width="8.5" height="1.98" fill="#fff"/><rect x="118.63" y="20.46" width="1.97" height="8.55" fill="#fff"/><rect x="115.36" y="23.74" width="8.5" height="1.98" fill="#fff"/><path d="M135.39,30a5.27,5.27,0,1,1,5.24-5.27h0A5.26,5.26,0,0,1,135.39,30Zm0-8.55a3.29,3.29,0,1,0,3.26,3.28h0A3.27,3.27,0,0,0,135.39,21.45Z" transform="translate(0 0)" fill="#fff"/><path d="M184.19,30a5.27,5.27,0,1,1,5.24-5.27h0A5.26,5.26,0,0,1,184.19,30Zm0-8.55a3.29,3.29,0,1,0,3.26,3.28h0A3.27,3.27,0,0,0,184.19,21.45Z" transform="translate(0 0)" fill="#fff"/><path d="M187.4,30H181a2,2,0,0,1-2-2V21.51a2,2,0,0,1,2-2h6.42a2,2,0,0,1,2,2V28A2,2,0,0,1,187.4,30ZM181,21.45l0,6.51,6.47.06a.06.06,0,0,0,0-.06V21.51Z" transform="translate(0 0)" fill="#fff"/><path d="M233.58,10.53a5.27,5.27,0,1,1,5.24-5.26A5.26,5.26,0,0,1,233.58,10.53Zm0-8.55a3.29,3.29,0,1,0,3.27,3.29h0A3.29,3.29,0,0,0,233.58,2Z" transform="translate(0 0)" fill="#fff"/><path d="M236.79,10.53h-6.42a2,2,0,0,1-2-2V2a2,2,0,0,1,2-2h6.42a2,2,0,0,1,2,2V8.49A2,2,0,0,1,236.79,10.53ZM230.37,2l-.05,6.52,6.47.05a.06.06,0,0,0,.06-.05V2Z" transform="translate(0 0)" fill="#fff"/><path d="M184.19,10.53a5.27,5.27,0,1,1,5.24-5.26A5.25,5.25,0,0,1,184.19,10.53Zm0-8.55a3.29,3.29,0,1,0,3.26,3.29h0A3.28,3.28,0,0,0,184.19,2Z" transform="translate(0 0)" fill="#fff"/><rect x="167.02" y="0.99" width="1.97" height="8.55" fill="#fff"/><rect x="163.75" y="4.27" width="8.5" height="1.98" fill="#fff"/><rect x="150.59" y="20.46" width="1.97" height="8.55" fill="#fff"/><rect x="147.32" y="23.74" width="8.5" height="1.98" fill="#fff"/><path d="M204.15,30h-6.37a2.05,2.05,0,0,1-2.05-2.06h0V21.53a2.05,2.05,0,0,1,2.05-2.06h6.37a2.05,2.05,0,0,1,2,2.06v6.41a2.06,2.06,0,0,1-2,2.06Zm-6.37-8.55-.08,6.48,6.45.09a.09.09,0,0,0,.08-.08h0v-6.4Z" transform="translate(0 0)" fill="#fff"/><path d="M217.15,10.53a5.27,5.27,0,1,1,5.24-5.26A5.25,5.25,0,0,1,217.15,10.53Zm0-8.55a3.29,3.29,0,1,0,3.26,3.29h0A3.28,3.28,0,0,0,217.15,2Z" transform="translate(0 0)" fill="#fff"/><path d="M249.76,10.53A5.27,5.27,0,1,1,255,5.27,5.25,5.25,0,0,1,249.76,10.53Zm0-8.55A3.29,3.29,0,1,0,253,5.27h0A3.29,3.29,0,0,0,249.76,2Z" transform="translate(0 0)" fill="#fff"/><rect x="199.98" y="0.99" width="1.97" height="8.55" fill="#fff"/><rect x="196.71" y="4.27" width="8.5" height="1.98" fill="#fff"/><rect x="216.16" y="20.46" width="1.97" height="8.55" fill="#fff"/><rect x="212.9" y="23.74" width="8.5" height="1.98" fill="#fff"/></svg>